<svg width="228" height="56" viewBox="0 0 228 56" fill="none" xmlns="http://www.w3.org/2000/svg">
<path d="M9.9697 15.7197L5.68945 20L9.9697 24.2802L11.0302 23.2197L7.81045 20L11.0302 16.7802L9.9697 15.7197Z" fill="#33354D"/>
<path d="M47.8148 25V17.74L46.1888 18.73V17.332L47.8148 16.36H49.0928V25H47.8148Z" fill="#33354D"/>
<rect x="74" y="2" width="36" height="36" rx="4" fill="#EFF2FC"/>
<path d="M89.0785 24.994L89.0845 23.878L92.8465 20.506C93.1505 20.238 93.3565 19.982 93.4645 19.738C93.5765 19.494 93.6325 19.25 93.6325 19.006C93.6325 18.698 93.5645 18.422 93.4285 18.178C93.2925 17.93 93.1045 17.734 92.8645 17.59C92.6245 17.446 92.3485 17.374 92.0365 17.374C91.7165 17.374 91.4305 17.45 91.1785 17.602C90.9305 17.75 90.7365 17.948 90.5965 18.196C90.4565 18.444 90.3885 18.712 90.3925 19H89.1085C89.1085 18.44 89.2345 17.95 89.4865 17.53C89.7425 17.106 90.0925 16.776 90.5365 16.54C90.9805 16.3 91.4885 16.18 92.0605 16.18C92.6045 16.18 93.0925 16.304 93.5245 16.552C93.9565 16.796 94.2965 17.132 94.5445 17.56C94.7965 17.988 94.9225 18.476 94.9225 19.024C94.9225 19.42 94.8705 19.756 94.7665 20.032C94.6625 20.308 94.5065 20.564 94.2985 20.8C94.0905 21.036 93.8305 21.292 93.5185 21.568L90.6145 24.16L90.4765 23.8H94.9225V24.994H89.0785Z" fill="#33354D"/>
<g filter="url(#filter0_d_1_342)">
<rect x="118" y="2" width="36" height="36" rx="4" fill="#6366F1"/>
</g>
<path d="M135.824 25.162C136.364 25.162 136.852 25.04 137.288 24.796C137.724 24.552 138.07 24.216 138.326 23.788C138.582 23.356 138.71 22.866 138.71 22.318C138.71 21.85 138.618 21.422 138.434 21.034C138.254 20.646 137.994 20.328 137.654 20.08C137.318 19.828 136.916 19.67 136.448 19.606L138.584 17.554V16.36H133.388V17.554H137.048L134.408 19.888L134.996 20.878C135.264 20.734 135.536 20.662 135.812 20.662C136.292 20.662 136.68 20.818 136.976 21.13C137.276 21.442 137.426 21.838 137.426 22.318C137.426 22.794 137.278 23.188 136.982 23.5C136.686 23.808 136.3 23.966 135.824 23.974C135.472 23.978 135.152 23.882 134.864 23.686C134.576 23.49 134.374 23.204 134.258 22.828L133.046 23.164C133.17 23.572 133.368 23.926 133.64 24.226C133.916 24.526 134.242 24.758 134.618 24.922C134.994 25.082 135.396 25.162 135.824 25.162Z" fill="white"/>
<path d="M180.885 25V23.494H176.985V22.306L179.793 16.36H181.227L178.419 22.306H180.885V19.966H182.157V22.306H183.015V23.494H182.157V25H180.885Z" fill="#33354D"/>
<path d="M218.03 24.2802L222.31 20L218.03 15.7197L216.97 16.7802L220.189 20L216.97 23.2197L218.03 24.2802Z" fill="#33354D"/>
<defs>
<filter id="filter0_d_1_342" x="108" y="0" width="56" height="56" filterUnits="userSpaceOnUse" color-interpolation-filters="sRGB">
<feFlood flood-opacity="0" result="BackgroundImageFix"/>
<feColorMatrix in="SourceAlpha" type="matrix" values="0 0 0 0 0 0 0 0 0 0 0 0 0 0 0 0 0 0 127 0" result="hardAlpha"/>
<feMorphology radius="8" operator="erode" in="SourceAlpha" result="effect1_dropShadow_1_342"/>
<feOffset dy="8"/>
<feGaussianBlur stdDeviation="9"/>
<feColorMatrix type="matrix" values="0 0 0 0 0.388235 0 0 0 0 0.4 0 0 0 0 0.945098 0 0 0 0.9 0"/>
<feBlend mode="normal" in2="BackgroundImageFix" result="effect1_dropShadow_1_342"/>
<feBlend mode="normal" in="SourceGraphic" in2="effect1_dropShadow_1_342" result="shape"/>
</filter>
</defs>
</svg>
