<svg width="96" height="16" viewBox="0 0 96 16" fill="none" xmlns="http://www.w3.org/2000/svg">
<path d="M14.6312 6.1195C14.5452 5.8675 14.3178 5.6895 14.0525 5.66883L10.2518 5.36683L8.60716 1.72616C8.49982 1.48683 8.26182 1.3335 7.99982 1.3335C7.73782 1.3335 7.49982 1.48683 7.39249 1.7255L5.74782 5.36683L1.94716 5.66883C1.68649 5.6895 1.46182 5.86083 1.37316 6.10683C1.28449 6.35283 1.34716 6.62816 1.53449 6.81083L4.34316 9.54883L3.34982 13.8502C3.28849 14.1162 3.39582 14.3928 3.62049 14.5482C3.73516 14.6268 3.86716 14.6668 3.99982 14.6668C4.12849 14.6668 4.25782 14.6295 4.36982 14.5548L7.99982 12.1348L11.6298 14.5548C11.8618 14.7095 12.1665 14.7035 12.3932 14.5388C12.6185 14.3742 12.7178 14.0855 12.6412 13.8175L11.4218 9.55083L14.4458 6.8295C14.6438 6.65083 14.7165 6.37216 14.6312 6.1195Z" fill="#FFBA08"/>
<path d="M34.6312 6.1195C34.5452 5.8675 34.3178 5.6895 34.0525 5.66883L30.2518 5.36683L28.6072 1.72616C28.4998 1.48683 28.2618 1.3335 27.9998 1.3335C27.7378 1.3335 27.4998 1.48683 27.3925 1.7255L25.7478 5.36683L21.9472 5.66883C21.6865 5.6895 21.4618 5.86083 21.3732 6.10683C21.2845 6.35283 21.3472 6.62816 21.5345 6.81083L24.3432 9.54883L23.3498 13.8502C23.2885 14.1162 23.3958 14.3928 23.6205 14.5482C23.7352 14.6268 23.8672 14.6668 23.9998 14.6668C24.1285 14.6668 24.2578 14.6295 24.3698 14.5548L27.9998 12.1348L31.6298 14.5548C31.8618 14.7095 32.1665 14.7035 32.3932 14.5388C32.6185 14.3742 32.7178 14.0855 32.6412 13.8175L31.4218 9.55083L34.4458 6.8295C34.6438 6.65083 34.7165 6.37216 34.6312 6.1195Z" fill="#FFBA08"/>
<path d="M54.6312 6.1195C54.5452 5.8675 54.3178 5.6895 54.0525 5.66883L50.2518 5.36683L48.6072 1.72616C48.4998 1.48683 48.2618 1.3335 47.9998 1.3335C47.7378 1.3335 47.4998 1.48683 47.3925 1.7255L45.7478 5.36683L41.9472 5.66883C41.6865 5.6895 41.4618 5.86083 41.3732 6.10683C41.2845 6.35283 41.3472 6.62816 41.5345 6.81083L44.3432 9.54883L43.3498 13.8502C43.2885 14.1162 43.3958 14.3928 43.6205 14.5482C43.7352 14.6268 43.8672 14.6668 43.9998 14.6668C44.1285 14.6668 44.2578 14.6295 44.3698 14.5548L47.9998 12.1348L51.6298 14.5548C51.8618 14.7095 52.1665 14.7035 52.3932 14.5388C52.6185 14.3742 52.7178 14.0855 52.6412 13.8175L51.4218 9.55083L54.4458 6.8295C54.6438 6.65083 54.7165 6.37216 54.6312 6.1195Z" fill="#FFBA08"/>
<path d="M74.6312 6.1195C74.5452 5.8675 74.3178 5.6895 74.0525 5.66883L70.2518 5.36683L68.6072 1.72616C68.4998 1.48683 68.2618 1.3335 67.9998 1.3335C67.7378 1.3335 67.4998 1.48683 67.3925 1.7255L65.7478 5.36683L61.9472 5.66883C61.6865 5.6895 61.4618 5.86083 61.3732 6.10683C61.2845 6.35283 61.3472 6.62816 61.5345 6.81083L64.3432 9.54883L63.3498 13.8502C63.2885 14.1162 63.3958 14.3928 63.6205 14.5482C63.7352 14.6268 63.8672 14.6668 63.9998 14.6668C64.1285 14.6668 64.2578 14.6295 64.3698 14.5548L67.9998 12.1348L71.6298 14.5548C71.8618 14.7095 72.1665 14.7035 72.3932 14.5388C72.6185 14.3742 72.7178 14.0855 72.6412 13.8175L71.4218 9.55083L74.4458 6.8295C74.6438 6.65083 74.7165 6.37216 74.6312 6.1195Z" fill="#FFBA08"/>
<path d="M94.6312 6.1195C94.5452 5.8675 94.3178 5.6895 94.0525 5.66883L90.2518 5.36683L88.6072 1.72616C88.4998 1.48683 88.2618 1.3335 87.9998 1.3335C87.7378 1.3335 87.4998 1.48683 87.3925 1.7255L85.7478 5.36683L81.9472 5.66883C81.6865 5.6895 81.4618 5.86083 81.3732 6.10683C81.2845 6.35283 81.3472 6.62816 81.5345 6.81083L84.3432 9.54883L83.3498 13.8502C83.2885 14.1162 83.3958 14.3928 83.6205 14.5482C83.7352 14.6268 83.8672 14.6668 83.9998 14.6668C84.1285 14.6668 84.2578 14.6295 84.3698 14.5548L87.9998 12.1348L91.6298 14.5548C91.8618 14.7095 92.1665 14.7035 92.3932 14.5388C92.6185 14.3742 92.7178 14.0855 92.6412 13.8175L91.4218 9.55083L94.4458 6.8295C94.6438 6.65083 94.7165 6.37216 94.6312 6.1195Z" fill="#FFBA08"/>
</svg>
